<!-- Heroicons UserGroup -->
<svg width="28" height="28" fill="none" viewBox="0 0 24 24">
    <path stroke="currentColor" stroke-width="2" stroke-linecap="round" stroke-linejoin="round"
    d="M17 20v-2a4 4 0 0 0-4-4H7a4 4 0 0 0-4 4v2M15 7a4 4 0 1 1-8 0 4 4 0 0 1 8 0ZM23 20v-2a4 4 0 0 0-3-3.87M16 3.13a4 4 0 0 1 0 7.75" />
</svg>

<!-- Heroicons CurrencyDollar -->
<svg width="28" height="28" fill="none" viewBox="0 0 24 24">
    <circle cx="12" cy="12" r="10" fill="#bbf7d0"/>
    <path d="M12 6v12M15 9c0-1.5-1.5-3-3-3s-3 1.5-3 3c0 3 6 3 6 6 0 1.5-1.5 3-3 3s-3-1.5-3-3" stroke="#22c55e" stroke-width="2" stroke-linecap="round" stroke-linejoin="round"/>
</svg>

<!-- Heroicons LockClosed -->
<svg width="28" height="28" fill="none" viewBox="0 0 24 24">
    <path stroke="currentColor" stroke-width="2" stroke-linecap="round" stroke-linejoin="round"
        d="M16 10V8a4 4 0 1 0-8 0v2m10 0H6a2 2 0 0 0-2 2v6a2 2 0 0 0 2 2h12a2 2 0 0 0 2-2v-6a2 2 0 0 0-2-2Z" />
</svg>